<?xml version="1.0" encoding="UTF-8"?>
<svg id="Layer_2" data-name="Layer 2" xmlns="http://www.w3.org/2000/svg" viewBox="0 0 189.84 189.84">
  <defs>
    <style>
      .cls-1 {
        fill: #fff;
      }
    </style>
  </defs>
  <g id="Layer_1-2" data-name="Layer 1">
    <polygon class="cls-1" points="145.95 150.73 142.39 150.73 122.65 150.73 106.4 150.73 106.4 135.99 106.4 116.8 85.22 116.8 85.22 116.8 78.23 116.8 78.23 110.46 78.23 110.46 78.23 89.34 78.23 64.15 50.44 64.15 39.64 64.15 39.64 54.36 39.64 39.9 23.69 39.9 19.82 39.9 19.82 36.39 19.82 0 0 0 0 18.42 0 39.54 0 189.84 165.8 189.84 183.03 189.84 189.1 189.84 189.84 189.84 189.84 150.73 145.95 150.73"/>
  </g>
</svg>