<?xml version="1.0" encoding="UTF-8"?>
<svg id="Layer_2" data-name="Layer 2" xmlns="http://www.w3.org/2000/svg" viewBox="0 0 486.84 138.01">
  <defs>
    <style>
      .cls-1 {
        fill: #6b1e55;
      }

      .cls-2 {
        fill: #a74e7a;
      }
    </style>
  </defs>
  <g id="Layer_1-2" data-name="Layer 1">
    <g>
      <g>
        <path class="cls-2" d="M167.02,80.77h-28.28l-4.55,11.96h-27.14l27.52-66.43h36.63l27.52,66.43h-27.14l-4.55-11.96ZM160.57,63.69l-7.69-20.31-7.69,20.31h15.37Z"/>
        <path class="cls-2" d="M223.4,16.81v75.92h-22.77V16.81h22.77Z"/>
        <path class="cls-2" d="M249.97,16.81v15.18h-22.77v-15.18h22.77ZM249.97,35.79v56.94h-22.77v-56.94h22.77Z"/>
        <path class="cls-2" d="M328.54,64.54v28.18h-22.77v-6.93c-8.83,6.45-18.69,7.88-28.56,7.88-13,0-24.39-4.65-24.39-16.99,0-14.8,17.08-18.69,33.69-18.69,7.97,0,14.04,1.04,19.26,2.94,0-6.83-7.21-7.12-14.8-7.12s-15.66.66-26.1,2.94l-7.4-16.13c11.39-3.7,23.72-5.79,34.26-5.79,23.34,0,36.63,7.97,36.82,29.7ZM305.77,71.75c-3.61-.95-8.54-1.42-15.09-1.42-10.53,0-15.09.95-15.09,4.55,0,3.13,2.66,3.61,8.45,3.61,7.69,0,16.04-1.9,21.73-4.36v-2.37Z"/>
        <path class="cls-2" d="M353.22,73.08c0,3.23,3.04,4.46,16.8,4.46,12.72,0,14.9-.57,14.9-3.04,0-2.85-2.18-2.56-15.85-3.13-26.19-1.04-37.67-3.04-37.67-17.56,0-16.23,17.56-18.98,38.62-18.98s35.78,2.75,35.78,19.17h-22.77c0-3.04-3.8-3.04-13.95-3.04-11.58,0-14.9,0-14.9,2.18,0,2.37,2.37,2.28,16.8,3.04,22.4,1.14,36.72,2.47,36.72,17.37,0,17.37-15.18,20.12-36.72,20.12s-40.52-2.75-40.52-20.59h22.77Z"/>
        <path class="cls-2" d="M463.59,71.37h22.3c-2.85,15.09-15.09,22.3-38.53,22.3s-37.77-8.35-37.77-29.42,15.47-29.42,38.72-29.42,38.53,8.35,38.53,33.21h-54c1.9,6.07,8.26,7.59,14.52,7.59,8.26,0,11.58-.57,16.23-4.27ZM433.89,56.66h28.66c-2.56-5.12-8.26-5.69-14.33-5.69s-11.77.57-14.33,5.69Z"/>
      </g>
      <polygon class="cls-1" points="106.1 109.58 103.51 109.58 89.17 109.58 77.35 109.58 77.35 98.86 77.35 84.91 61.96 84.91 61.96 84.91 56.87 84.91 56.87 80.3 56.87 80.3 56.87 64.95 56.87 46.64 36.67 46.64 28.82 46.64 28.82 39.52 28.82 29.01 17.22 29.01 14.41 29.01 14.41 26.46 14.41 0 0 0 0 13.39 0 28.75 0 138.01 120.54 138.01 133.06 138.01 137.47 138.01 138.01 138.01 138.01 109.58 106.1 109.58"/>
    </g>
  </g>
</svg>