<svg id="visual" viewBox="0 0 900 150" width="900" height="150" xmlns="http://www.w3.org/2000/svg" xmlns:xlink="http://www.w3.org/1999/xlink" version="1.1"><rect x="0" y="0" width="900" height="150" fill="#070b11"></rect><path d="M0 74L21.5 72.2C43 70.3 86 66.7 128.8 71.2C171.7 75.7 214.3 88.3 257.2 101C300 113.7 343 126.3 385.8 131.5C428.7 136.7 471.3 134.3 514.2 127.7C557 121 600 110 642.8 107.8C685.7 105.7 728.3 112.3 771.2 119.3C814 126.3 857 133.7 878.5 137.3L900 141L900 0L878.5 0C857 0 814 0 771.2 0C728.3 0 685.7 0 642.8 0C600 0 557 0 514.2 0C471.3 0 428.7 0 385.8 0C343 0 300 0 257.2 0C214.3 0 171.7 0 128.8 0C86 0 43 0 21.5 0L0 0Z" fill="#070b11"></path><path d="M0 59L21.5 68.8C43 78.7 86 98.3 128.8 108.5C171.7 118.7 214.3 119.3 257.2 113.2C300 107 343 94 385.8 81.2C428.7 68.3 471.3 55.7 514.2 55.8C557 56 600 69 642.8 76.7C685.7 84.3 728.3 86.7 771.2 82.2C814 77.7 857 66.3 878.5 60.7L900 55L900 0L878.5 0C857 0 814 0 771.2 0C728.3 0 685.7 0 642.8 0C600 0 557 0 514.2 0C471.3 0 428.7 0 385.8 0C343 0 300 0 257.2 0C214.3 0 171.7 0 128.8 0C86 0 43 0 21.5 0L0 0Z" fill="#0c0f14"></path><path d="M0 67L21.5 69.7C43 72.3 86 77.7 128.8 72.5C171.7 67.3 214.3 51.7 257.2 52.8C300 54 343 72 385.8 71.7C428.7 71.3 471.3 52.7 514.2 48.5C557 44.3 600 54.7 642.8 55.8C685.7 57 728.3 49 771.2 55.2C814 61.3 857 81.7 878.5 91.8L900 102L900 0L878.5 0C857 0 814 0 771.2 0C728.3 0 685.7 0 642.8 0C600 0 557 0 514.2 0C471.3 0 428.7 0 385.8 0C343 0 300 0 257.2 0C214.3 0 171.7 0 128.8 0C86 0 43 0 21.5 0L0 0Z" fill="#101216"></path><path d="M0 34L21.5 36.5C43 39 86 44 128.8 47.5C171.7 51 214.3 53 257.2 51.2C300 49.3 343 43.7 385.8 45.3C428.7 47 471.3 56 514.2 53.7C557 51.3 600 37.7 642.8 35.3C685.7 33 728.3 42 771.2 41.7C814 41.3 857 31.7 878.5 26.8L900 22L900 0L878.5 0C857 0 814 0 771.2 0C728.3 0 685.7 0 642.8 0C600 0 557 0 514.2 0C471.3 0 428.7 0 385.8 0C343 0 300 0 257.2 0C214.3 0 171.7 0 128.8 0C86 0 43 0 21.5 0L0 0Z" fill="#141518"></path><path d="M0 59L21.5 55.8C43 52.7 86 46.3 128.8 42.5C171.7 38.7 214.3 37.3 257.2 32.5C300 27.7 343 19.3 385.8 23.5C428.7 27.7 471.3 44.3 514.2 50.3C557 56.3 600 51.7 642.8 46.2C685.7 40.7 728.3 34.3 771.2 32.7C814 31 857 34 878.5 35.5L900 37L900 0L878.5 0C857 0 814 0 771.2 0C728.3 0 685.7 0 642.8 0C600 0 557 0 514.2 0C471.3 0 428.7 0 385.8 0C343 0 300 0 257.2 0C214.3 0 171.7 0 128.8 0C86 0 43 0 21.5 0L0 0Z" fill="#17181b"></path><path d="M0 26L21.5 24C43 22 86 18 128.8 14.2C171.7 10.3 214.3 6.7 257.2 9C300 11.3 343 19.7 385.8 20.8C428.7 22 471.3 16 514.2 14.2C557 12.3 600 14.7 642.8 19C685.7 23.3 728.3 29.7 771.2 33.5C814 37.3 857 38.7 878.5 39.3L900 40L900 0L878.5 0C857 0 814 0 771.2 0C728.3 0 685.7 0 642.8 0C600 0 557 0 514.2 0C471.3 0 428.7 0 385.8 0C343 0 300 0 257.2 0C214.3 0 171.7 0 128.8 0C86 0 43 0 21.5 0L0 0Z" fill="#1a1a1d"></path></svg>