<svg id="visual" viewBox="0 0 900 150" width="900" height="150" xmlns="http://www.w3.org/2000/svg" xmlns:xlink="http://www.w3.org/1999/xlink" version="1.1"><rect x="0" y="0" width="900" height="150" fill="#070b11"></rect><path d="M0 57L129 57L129 11L257 11L257 42L386 42L386 50L514 50L514 44L643 44L643 31L771 31L771 23L900 23L900 31L900 151L900 151L771 151L771 151L643 151L643 151L514 151L514 151L386 151L386 151L257 151L257 151L129 151L129 151L0 151Z" fill="#070b11"></path><path d="M0 35L129 35L129 39L257 39L257 56L386 56L386 42L514 42L514 62L643 62L643 36L771 36L771 45L900 45L900 55L900 151L900 151L771 151L771 151L643 151L643 151L514 151L514 151L386 151L386 151L257 151L257 151L129 151L129 151L0 151Z" fill="#0d1018"></path><path d="M0 72L129 72L129 68L257 68L257 43L386 43L386 61L514 61L514 43L643 43L643 41L771 41L771 46L900 46L900 52L900 151L900 151L771 151L771 151L643 151L643 151L514 151L514 151L386 151L386 151L257 151L257 151L129 151L129 151L0 151Z" fill="#13131f"></path><path d="M0 69L129 69L129 84L257 84L257 80L386 80L386 62L514 62L514 70L643 70L643 79L771 79L771 63L900 63L900 64L900 151L900 151L771 151L771 151L643 151L643 151L514 151L514 151L386 151L386 151L257 151L257 151L129 151L129 151L0 151Z" fill="#181624"></path><path d="M0 96L129 96L129 101L257 101L257 102L386 102L386 74L514 74L514 105L643 105L643 105L771 105L771 98L900 98L900 76L900 151L900 151L771 151L771 151L643 151L643 151L514 151L514 151L386 151L386 151L257 151L257 151L129 151L129 151L0 151Z" fill="#201829"></path><path d="M0 114L129 114L129 117L257 117L257 90L386 90L386 94L514 94L514 109L643 109L643 95L771 95L771 98L900 98L900 89L900 151L900 151L771 151L771 151L643 151L643 151L514 151L514 151L386 151L386 151L257 151L257 151L129 151L129 151L0 151Z" fill="#281a2d"></path><path d="M0 115L129 115L129 131L257 131L257 108L386 108L386 105L514 105L514 130L643 130L643 113L771 113L771 119L900 119L900 129L900 151L900 151L771 151L771 151L643 151L643 151L514 151L514 151L386 151L386 151L257 151L257 151L129 151L129 151L0 151Z" fill="#311b30"></path><path d="M0 133L129 133L129 140L257 140L257 130L386 130L386 122L514 122L514 122L643 122L643 131L771 131L771 129L900 129L900 142L900 151L900 151L771 151L771 151L643 151L643 151L514 151L514 151L386 151L386 151L257 151L257 151L129 151L129 151L0 151Z" fill="#3b1c32"></path></svg>