<svg id="visual" viewBox="0 0 900 100" width="900" height="100" xmlns="http://www.w3.org/2000/svg" xmlns:xlink="http://www.w3.org/1999/xlink" version="1.1"><rect x="0" y="0" width="900" height="100" fill="#3B1C32"></rect><path d="M0 38L129 17L257 49L386 42L514 34L643 17L771 32L900 36L900 101L771 101L643 101L514 101L386 101L257 101L129 101L0 101Z" fill="#3b1c32"></path><path d="M0 64L129 40L257 57L386 42L514 62L643 41L771 56L900 47L900 101L771 101L643 101L514 101L386 101L257 101L129 101L0 101Z" fill="#532844"></path><path d="M0 60L129 58L257 62L386 41L514 58L643 54L771 67L900 52L900 101L771 101L643 101L514 101L386 101L257 101L129 101L0 101Z" fill="#6d3456"></path><path d="M0 69L129 56L257 66L386 73L514 67L643 75L771 60L900 72L900 101L771 101L643 101L514 101L386 101L257 101L129 101L0 101Z" fill="#894068"></path><path d="M0 88L129 77L257 74L386 86L514 88L643 88L771 93L900 77L900 101L771 101L643 101L514 101L386 101L257 101L129 101L0 101Z" fill="#a64d79"></path></svg>