<?xml version="1.0" encoding="UTF-8"?>
<svg id="Layer_2" data-name="Layer 2" xmlns="http://www.w3.org/2000/svg" viewBox="0 0 667.89 620.4">
  <defs>
    <style>
      .cls-1 {
        fill: #d9385b;
      }
    </style>
  </defs>
  <g id="Layer_1-2" data-name="Layer 1">
    <g>
      <path class="cls-1" d="M310.61,310.61c-25.27,169.65,123.9,332.45-45.75,307.18C95.21,592.53-21.84,434.51,3.43,264.86,28.7,95.21,186.72-21.84,356.37,3.43c169.65,25.27-20.48,137.53-45.75,307.18Z"/>
      <path class="cls-1" d="M595.84,224.75l-229-91.36,29.65-74.31c8.68-21.75-7.4-41.91-.69-45.98l245.41,97.96c21.75,8.68,32.35,33.34,23.67,55.09l-13.94,34.93c-8.68,21.75-33.34,32.35-55.09,23.67Z"/>
      <path class="cls-1" d="M263.73,211.68h238.04c17.42,0,31.56,14.14,31.56,31.56v59.28c0,17.42-14.14,31.56-31.56,31.56h-238.04c-10.68,0-19.35-8.67-19.35-19.35v-83.71c0-10.68,8.67-19.35,19.35-19.35Z" transform="translate(128.79 -124.66) rotate(21.75)"/>
    </g>
  </g>
</svg>