<?xml version="1.0" encoding="utf-8"?>
<!-- Generator: Adobe Illustrator 26.1.0, SVG Export Plug-In . SVG Version: 6.00 Build 0)  -->
<svg version="1.1" xmlns="http://www.w3.org/2000/svg" xmlns:xlink="http://www.w3.org/1999/xlink" x="0px" y="0px"
	 viewBox="0 0 1080 1080" style="enable-background:new 0 0 1080 1080;" xml:space="preserve">
<style type="text/css">
	.st0{fill:#A8A7A7;}
</style>
<g id="Layer_1">
	<circle class="st0" cx="540" cy="540" r="304.78"/>
</g>
<g id="Layer_2">
	<path class="st0" d="M550.08,36.85h-20.16c-5.52,0-10,4.48-10,10v161.97c0,5.52,4.48,10,10,10h20.16c5.52,0,10-4.48,10-10V46.85
		C560.08,41.33,555.6,36.85,550.08,36.85z"/>
	<path class="st0" d="M549.8,861.18h-20.16c-5.52,0-10,4.48-10,10v161.97c0,5.52,4.48,10,10,10h20.16c5.52,0,10-4.48,10-10V871.18
		C559.8,865.66,555.33,861.18,549.8,861.18z"/>
	<path class="st0" d="M39.59,529.92v20.16c0,5.52,4.48,10,10,10h161.97c5.52,0,10-4.48,10-10v-20.16c0-5.52-4.48-10-10-10H49.59
		C44.07,519.92,39.59,524.4,39.59,529.92z"/>
	<path class="st0" d="M858.44,529.92v20.16c0,5.52,4.48,10,10,10h161.97c5.52,0,10-4.48,10-10v-20.16c0-5.52-4.48-10-10-10H868.44
		C862.92,519.92,858.44,524.4,858.44,529.92z"/>
	<path class="st0" d="M155.65,880.84l14.26,14.26c3.91,3.91,10.24,3.91,14.14,0l114.53-114.53c3.91-3.91,3.91-10.24,0-14.14
		l-14.26-14.26c-3.91-3.91-10.24-3.91-14.14,0L155.65,866.7C151.75,870.6,151.75,876.94,155.65,880.84z"/>
	<path class="st0" d="M756.36,280.13l14.26,14.26c3.91,3.91,10.24,3.91,14.14,0l114.53-114.53c3.91-3.91,3.91-10.24,0-14.14
		l-14.26-14.26c-3.91-3.91-10.24-3.91-14.14,0L756.36,265.99C752.46,269.9,752.46,276.23,756.36,280.13z"/>
	<path class="st0" d="M911.17,896.74l14.26-14.26c3.91-3.91,3.91-10.24,0-14.14L810.9,753.81c-3.91-3.91-10.24-3.91-14.14,0
		l-14.26,14.26c-3.91,3.91-3.91,10.24,0,14.14l114.53,114.53C900.93,900.64,907.26,900.64,911.17,896.74z"/>
	<path class="st0" d="M310.87,296.44l14.26-14.26c3.91-3.91,3.91-10.24,0-14.14L210.6,153.51c-3.91-3.91-10.24-3.91-14.14,0
		l-14.26,14.26c-3.91,3.91-3.91,10.24,0,14.14l114.53,114.53C300.63,300.34,306.96,300.34,310.87,296.44z"/>
</g>
</svg>
