<?xml version="1.0" encoding="UTF-8"?>
<svg id="Layer_1" xmlns="http://www.w3.org/2000/svg" viewBox="0 0 1920 1080">
  <defs>
    <style>
      .cls-1 {
        fill: #1e7b9c;
      }

      .cls-2 {
        fill: #03374d;
      }

      .cls-3 {
        fill: #1d7999;
      }

      .cls-4 {
        fill: #0e6ab3;
      }

      .cls-5 {
        fill: #fff;
      }

      .cls-6 {
        fill: #f3643a;
      }

      .cls-7 {
        fill: #064054;
      }

      .cls-8 {
        fill: #f6a806;
      }

      .cls-9 {
        fill: #2491b8;
      }

      .cls-10 {
        fill: #033d57;
      }

      .cls-11 {
        fill: #e0e0e0;
      }

      .cls-12 {
        fill: #ffb72d;
      }

      .cls-13 {
        stroke-dasharray: 5.01 5 0 0 0 0;
      }

      .cls-13, .cls-14 {
        fill: none;
        stroke: #02293b;
        stroke-miterlimit: 10;
      }

      .cls-15 {
        fill: #acc1c6;
      }

      .cls-16 {
        fill: #d3dfdf;
      }

      .cls-17 {
        fill: #70a5c5;
      }

      .cls-18 {
        fill: #02293b;
      }

      .cls-14 {
        stroke-width: .25px;
      }

      .cls-19 {
        fill: #d99d27;
      }

      .cls-20 {
        fill: #202b33;
        isolation: isolate;
      }

      .cls-20, .cls-21 {
        opacity: .5;
      }

      .cls-22 {
        fill: #023a53;
      }

      .cls-23 {
        fill: #f29c09;
      }

      .cls-24 {
        fill: #c28c23;
      }

      .cls-25 {
        fill: #e2f5f9;
      }

      .cls-26 {
        fill: #145166;
      }

      .cls-27 {
        fill: #8b8f8c;
      }
    </style>
  </defs>
  <g id="BACKGROUND">
    <rect class="cls-27" width="1920" height="1080"/>
  </g>
  <g id="OBJECTS">
    <g>
      <path class="cls-22" d="M1486.27,341.08h-803.12c-7.98,0-14.66,6.07-15.41,14.01l-51.82,543.3h834.23l51.54-540.36c.86-9.09-6.28-16.95-15.42-16.95Z"/>
      <path class="cls-5" d="M1170.37,922.51c-1.93,4.78-4.82,9.12-8.44,12.73-7.03,7.03-16.71,11.37-27.44,11.37H436.72c-16.19,0-30.13-9.96-35.91-24.1"/>
      <path class="cls-4" d="M830,922.49h-95.56c-9.48,0-17.16-7.68-17.16-17.16v-6.94h129.89v6.94c0,9.48-7.68,17.16-17.16,17.16Z"/>
      <path class="cls-17" d="M1459.19,390.69l-3.82,40.24-33.8,354.64-.17,1.67-6.01,62.86c-.27,2.7-1.69,5.07-3.75,6.52-1.45,1.01-3.24,1.69-5.13,1.69h-735.9c-5.2,0-8.69-4.54-8.69-9.71v-.17l5.74-61.15.12-1.62,37.73-396.69c.44-4.56,4.26-8.45,8.89-8.45h735.9c5.27,0,9.39,4.91,8.88,10.17Z"/>
      <path class="cls-18" d="M1506.6,341.08h-20.33c9.13,0,16.28,7.86,15.42,16.95l-51.54,540.36h0c11.53,0,21.17-8.76,22.26-20.24l49.61-520.12c.86-9.09-6.28-16.95-15.42-16.95Z"/>
      <path class="cls-15" d="M1450.12,907.76c0,10.73-4.34,20.45-11.37,27.48-7.03,7.03-16.71,11.37-27.44,11.37H436.72c-20.09,0-36.68-15.35-38.6-34.95-.12-1.28-.2-2.57-.2-3.9,0-2.61,1.04-4.94,2.73-6.63s4.06-2.73,6.63-2.73h1033.49c5.18,0,9.36,4.18,9.36,9.36Z"/>
      <path class="cls-18" d="M1391.79,933.24h-123.02c-5.93,0-10.73-4.8-10.73-10.73h0c0-5.93,4.8-10.73,10.73-10.73h123.02c5.93,0,10.73,4.8,10.73,10.73h0c0,5.93-4.8,10.73-10.73,10.73Z"/>
      <path class="cls-18" d="M1240.15,933.24h-12.87c-5.93,0-10.73-4.8-10.73-10.73h0c0-5.93,4.8-10.73,10.73-10.73h12.87c5.93,0,10.73,4.8,10.73,10.73h0c0,5.93-4.8,10.73-10.73,10.73Z"/>
      <path class="cls-16" d="M1173.3,907.76c0,1.32-.08,2.61-.2,3.9-.88,9.16-4.98,17.39-11.17,23.58-7.03,7.03-16.71,11.37-27.44,11.37H436.72c-20.09,0-36.68-15.35-38.6-34.95-.12-1.28-.2-2.57-.2-3.9,0-2.61,1.04-4.94,2.73-6.63s4.06-2.73,6.63-2.73h756.67c5.18,0,9.36,4.18,9.36,9.36Z"/>
      <path class="cls-22" d="M835.12,922.49h-105.79c-6.65,0-12.05-5.39-12.05-12.05h0c0-6.65,5.39-12.05,12.05-12.05h105.79c6.65,0,12.05,5.39,12.05,12.05h0c0,6.65-5.39,12.05-12.05,12.05Z"/>
    </g>
    <path class="cls-20" d="M1366.26,310.6l-3.82,40.24-33.8,354.64-.17,1.67-6.01,62.86c-.27,2.7-1.69,5.07-3.75,6.52-1.45,1.01-3.24,1.69-5.13,1.69h-735.9c-5.2,0-8.69-4.54-8.69-9.71v-.17l5.74-61.15.12-1.62,37.73-396.69c.44-4.56,4.27-8.45,8.89-8.45h735.9c5.27,0,9.39,4.91,8.89,10.17Z"/>
    <g class="cls-21">
      <path class="cls-13" d="M1401.03,282.43l-49.19,515.99c-.3,3.04-1.9,5.69-4.21,7.32-1.63,1.14-3.64,1.9-5.77,1.9h-797.91c-5.84,0-9.76-5.1-9.76-10.9v-.19l48.96-516.05c.49-5.12,4.79-9.49,9.98-9.49h797.91c5.92,0,10.54,5.5,9.97,11.42Z"/>
    </g>
    <polygon class="cls-6" points="691.16 360.46 1151.66 360.46 1151.66 459.64 681.73 459.64 691.16 360.46"/>
    <g>
      <path class="cls-8" d="M1237.49,410.05h0c0,27.39-22.2,49.59-49.59,49.59h-36.24v-99.18h36.24c27.39,0,49.59,22.2,49.59,49.59Z"/>
      <rect class="cls-5" x="1160.78" y="360.46" width="7.15" height="99.18"/>
      <path class="cls-8" d="M1394.92,410.05h0c0,10.27-8.33,18.6-18.6,18.6h-173.09c-10.27,0-18.6-8.33-18.6-18.6h0c0-10.27,8.33-18.6,18.6-18.6h173.09c10.27,0,18.6,8.33,18.6,18.6Z"/>
      <rect class="cls-2" x="1080.45" y="360.46" width="71.21" height="99.18"/>
      <rect class="cls-10" x="1080.45" y="444.02" width="71.21" height="4.29"/>
      <rect class="cls-10" x="1080.45" y="419.94" width="71.21" height="4.29"/>
      <rect class="cls-10" x="1080.45" y="395.86" width="71.21" height="4.29"/>
      <rect class="cls-10" x="1080.45" y="371.78" width="71.21" height="4.29"/>
    </g>
    <polygon class="cls-5" points="680.47 486.45 655.18 752.38 1090.76 752.38 1116.06 486.45 680.47 486.45"/>
    <g>
      <polygon class="cls-23" points="935.54 897.99 921.21 897.99 938.85 694.07 953.17 694.07 935.54 897.99"/>
      <polygon class="cls-23" points="934.24 747.42 935.47 733.09 1035.16 733.09 1033.92 747.42 934.24 747.42"/>
      <polygon class="cls-23" points="929.41 803.19 930.65 788.87 1030.34 788.87 1029.1 803.19 929.41 803.19"/>
      <polygon class="cls-23" points="924.59 858.97 925.83 844.65 1025.51 844.65 1024.27 858.97 924.59 858.97"/>
      <polygon class="cls-23" points="1020.9 897.99 1006.57 897.99 1024.21 694.07 1038.53 694.07 1020.9 897.99"/>
    </g>
    <g>
      <polygon class="cls-18" points="944.71 651.27 950.51 590.35 514.92 590.35 509.13 651.27 944.71 651.27"/>
      <polygon class="cls-8" points="769.37 625.95 770.62 612.88 540.98 612.88 539.74 625.95 769.37 625.95"/>
      <polygon class="cls-6" points="918.67 625.95 919.91 612.88 802.5 612.88 801.25 625.95 918.67 625.95"/>
    </g>
    <g>
      <rect class="cls-11" x="857.65" y="239.13" width="206.79" height="77.25"/>
      <rect class="cls-26" x="995.96" y="252.2" width="51.12" height="51.12"/>
      <rect class="cls-1" x="944.85" y="252.2" width="51.12" height="51.12"/>
      <rect class="cls-9" x="893.73" y="252.2" width="51.12" height="51.12"/>
    </g>
    <g>
      <rect class="cls-5" x="857.65" y="188.1" width="206.79" height="77.25"/>
      <rect class="cls-24" x="995.96" y="201.17" width="51.12" height="51.12"/>
      <rect class="cls-19" x="944.85" y="201.17" width="51.12" height="51.12"/>
      <rect class="cls-12" x="893.73" y="201.17" width="51.12" height="51.12"/>
    </g>
    <g>
      <path class="cls-26" d="M972.76,178.39l-21.8-21.8,18.69-18.69c6.02-6.02,15.78-6.02,21.8,0h0c6.02,6.02,6.02,15.78,0,21.8l-18.69,18.69Z"/>
      <path class="cls-26" d="M971.18,183.82l-26.45-26.45c-1.93-1.93-1.93-5.07,0-7.01h0c1.93-1.93,5.07-1.93,7.01,0l26.45,26.45c1.93,1.93,1.93,5.07,0,7.01h0c-1.93,1.94-5.07,1.94-7.01,0Z"/>
      <path class="cls-25" d="M915.93,213.41h0c-6.02-6.02-6.02-15.78,0-21.8l31.53-31.53,21.8,21.8-31.52,31.52c-6.03,6.03-15.78,6.03-21.8,0Z"/>
      <path class="cls-25" d="M912.04,217.31h0c-2.47-2.47-2.47-6.48,0-8.96l3.5-3.5c2.47-2.47,6.48-2.47,8.96,0h0c2.47,2.47,2.47,6.48,0,8.96l-3.5,3.5c-2.47,2.47-6.48,2.47-8.96,0Z"/>
    </g>
    <g>
      <polygon class="cls-5" points="1148.5 486.45 1123.21 752.38 1277.13 752.38 1302.43 486.45 1148.5 486.45"/>
      <g>
        <path class="cls-16" d="M1228.67,593.75l-1.52-8.71c-.18-1.03-1.07-1.78-2.12-1.78h-24.44c-1.04,0-1.94.75-2.12,1.78l-1.52,8.71h-10.6c-3.28,0-5.93,2.66-5.93,5.93v35.58c0,3.28,2.66,5.93,5.93,5.93h52.92c3.28,0,5.93-2.66,5.93-5.93v-35.58c0-3.28-2.66-5.93-5.93-5.93h-10.6ZM1212.82,634.67c-9.57,0-17.33-7.76-17.33-17.33s7.76-17.33,17.33-17.33,17.33,7.76,17.33,17.33-7.76,17.33-17.33,17.33Z"/>
        <path class="cls-16" d="M1226.28,617.33c0,7.43-6.03,13.46-13.46,13.46s-13.46-6.03-13.46-13.46,6.03-13.46,13.46-13.46,13.46,6.03,13.46,13.46Z"/>
      </g>
      <line class="cls-14" x1="1148.5" y1="486.45" x2="1277.13" y2="752.38"/>
      <line class="cls-14" x1="1302.43" y1="486.45" x2="1123.21" y2="752.38"/>
    </g>
    <g>
      <polygon class="cls-7" points="1380.66 719.82 1303.86 719.82 1311.34 643.02 1388.14 643.02 1380.66 719.82"/>
      <g>
        <polygon class="cls-3" points="1346.77 673.52 1311.28 689.32 1343.69 705.12 1379.17 689.32 1346.77 673.52"/>
        <polygon class="cls-9" points="1348.31 657.72 1312.82 673.52 1345.23 689.32 1380.71 673.52 1348.31 657.72"/>
      </g>
    </g>
    <g>
      <polygon class="cls-7" points="1390.52 618.56 1313.72 618.56 1321.21 541.76 1398 541.76 1390.52 618.56"/>
      <polygon class="cls-3" points="1362.23 587.21 1334.01 587.21 1336.76 559 1364.98 559 1362.23 587.21"/>
      <polygon class="cls-3" points="1374.96 601.32 1346.75 601.32 1349.5 573.1 1377.71 573.1 1374.96 601.32"/>
    </g>
  </g>
</svg>