<?xml version="1.0" encoding="UTF-8"?>
<svg id="Layer_2" data-name="Layer 2" xmlns="http://www.w3.org/2000/svg" viewBox="0 0 487.87 337.69">
  <defs>
    <style>
      .cls-1 {
        letter-spacing: -.01em;
      }

      .cls-2, .cls-3 {
        fill: #fff;
      }

      .cls-4 {
        letter-spacing: 0em;
      }

      .cls-3 {
        font-family: Maghelia, Maghelia;
        font-size: 86px;
      }

      .cls-5 {
        letter-spacing: -.02em;
      }

      .cls-6 {
        letter-spacing: 0em;
      }
    </style>
  </defs>
  <g id="Layer_1-2" data-name="Layer 1">
    <g>
      <g>
        <path class="cls-2" d="M375.56,162.58c-56.63-2.38-99.89-13.72-131.56-25.45-2.53-.94-5.07-1.91-7.61-2.89-2.13-.83-4.47-.97-6.68-.39l-7.95,2.09c-3.01.79-5.35,3.14-6.14,6.14l-16.12,61.46c-2.14,8.16-9.52,14.06-17.96,13.85s-14.79-5.53-16.85-13.37l-16.24-61.94c-.79-3.01-3.14-5.35-6.14-6.14l-42.37-11.11c-3.25-.85-6.71-.42-9.64,1.22-13.16,7.37-23.31,16.4-23.31,24.08v97.09c0,5.47,4.44,9.91,9.91,9.91h316.18c5.47,0,9.91-4.44,9.91-9.91v-56.03c0-15.35-12.1-27.97-27.44-28.62Z"/>
        <g>
          <polygon class="cls-2" points="176.97 3.91 176.97 3.91 171.36 25.31 176.97 3.91"/>
          <polygon class="cls-2" points="187.11 3.91 192.72 25.31 187.11 3.91 187.11 3.91"/>
          <polygon class="cls-2" points="176.97 200.8 176.97 200.8 169.37 171.85 176.97 200.8"/>
          <polygon class="cls-2" points="187.11 200.8 194.7 171.85 187.11 200.8 187.11 200.8"/>
          <path class="cls-2" d="M289.15,99.56l-40.35-10.58-30.25-7.93c-7.44-1.95-13.24-7.76-15.19-15.19l-10.63-40.54-5.61-21.4c-.68-2.61-2.88-3.91-5.07-3.91s-4.39,1.3-5.07,3.91l-5.61,21.4-10.63,40.54c-1.95,7.44-7.76,13.24-15.19,15.19l-30.57,8.02-31.36,8.23c-5.22,1.37-5.22,8.77,0,10.14l31.05,8.14.31.08,30.57,8.02c7.44,1.95,13.24,7.76,15.19,15.19,0,0,0,0,0,0l8.65,32.98,7.59,28.96c.68,2.61,2.88,3.91,5.07,3.91s4.39-1.3,5.07-3.91l7.59-28.96,8.65-32.98s0,0,0,0c1.53-5.82,5.42-10.63,10.61-13.39l34.83-9.74,40.35-10.58c2.88-.76,2.88-4.84,0-5.6Z"/>
        </g>
      </g>
      <text class="cls-3" transform="translate(0 312.67)"><tspan x="0" y="0">d</tspan><tspan class="cls-6" x="50.65" y="0">r</tspan><tspan x="97.35" y="0">ea</tspan><tspan class="cls-1" x="186.62" y="0">m</tspan><tspan x="265.74" y="0">sc</tspan><tspan class="cls-5" x="350.19" y="0">a</tspan><tspan class="cls-4" x="394.39" y="0">pe</tspan></text>
    </g>
  </g>
</svg>