<?xml version="1.0" encoding="UTF-8"?>
<svg id="Layer_2" xmlns="http://www.w3.org/2000/svg" viewBox="0 0 170.75 118.19">
  <defs>
    <style>
      .cls-1 {
        fill: #f3c7dd;
      }

      .cls-2 {
        font-family: Maghelia, Maghelia;
        font-size: 30.1px;
      }

      .cls-2, .cls-3 {
        fill: #7d89bb;
      }

      .cls-4 {
        letter-spacing: -.01em;
      }

      .cls-5 {
        letter-spacing: 0em;
      }

      .cls-6 {
        letter-spacing: 0em;
      }

      .cls-7 {
        fill: #e4a7c8;
      }

      .cls-8 {
        letter-spacing: -.02em;
      }
    </style>
  </defs>
  <g id="Layer_2-2" data-name="Layer_2">
    <g>
      <path class="cls-3" d="M131.39,56.9c-19.8-.84-34.92-4.8-46-8.9-.89-.33-1.77-.67-2.66-1.01-.75-.29-1.56-.34-2.34-.14l-2.78.73c-1.05.28-1.87,1.1-2.15,2.15l-5.63,21.46c-.73,2.79-3.2,4.88-6.08,4.9s-5.38-1.87-6.11-4.68l-5.68-21.68c-.28-1.05-1.1-1.87-2.15-2.15l-14.83-3.89c-1.13-.3-2.33-.15-3.35.42-4.62,2.58-8.18,5.75-8.18,8.44v33.98c0,1.92,1.55,3.47,3.47,3.47h110.66c1.92,0,3.47-1.55,3.47-3.47v-19.61c0-5.39-4.26-9.79-9.65-10.02Z"/>
      <g>
        <polygon class="cls-1" points="61.94 1.37 61.94 1.37 59.97 8.86 61.94 1.37"/>
        <polygon class="cls-1" points="65.48 1.37 67.45 8.86 65.48 1.37 65.48 1.37"/>
        <polygon class="cls-1" points="61.94 70.28 61.94 70.28 59.28 60.14 61.94 70.28"/>
        <polygon class="cls-1" points="65.48 70.28 68.14 60.14 65.48 70.28 65.48 70.28"/>
        <path class="cls-7" d="M101.2,34.84l-14.12-3.7-10.59-2.78c-2.6-.68-4.63-2.71-5.32-5.32l-3.72-14.19-1.96-7.49c-.24-.91-1.01-1.37-1.77-1.37s-1.54.46-1.77,1.37l-1.96,7.49-3.72,14.19c-.68,2.6-2.71,4.63-5.32,5.32l-10.7,2.81-10.98,2.88c-1.83.48-1.83,3.07,0,3.55l10.87,2.85.11.03,10.39,2.72c2.68.7,4.81,2.75,5.63,5.4h0s3.03,11.54,3.03,11.54l2.66,10.13c.24.91,1.01,1.37,1.77,1.37s1.54-.46,1.77-1.37l2.66-10.13,3.03-11.54s0,0,0,0c.53-2.04,1.9-3.72,3.71-4.69l12.19-3.41,14.12-3.7c1.01-.26,1.01-1.69,0-1.96Z"/>
      </g>
      <text class="cls-2" transform="translate(0 109.43)"><tspan x="0" y="0">d</tspan><tspan class="cls-5" x="17.73" y="0">r</tspan><tspan x="34.07" y="0">ea</tspan><tspan class="cls-4" x="65.31" y="0">m</tspan><tspan class="cls-6" x="93" y="0">sc</tspan><tspan class="cls-8" x="122.56" y="0">a</tspan><tspan x="138.03" y="0">pe</tspan></text>
    </g>
  </g>
</svg>