<?xml version="1.0" encoding="UTF-8"?>
<svg id="Layer_2" data-name="Layer 2" xmlns="http://www.w3.org/2000/svg" viewBox="0 0 67.26 67.26">
  <defs>
    <style>
      .cls-1 {
        fill: #fff;
      }
    </style>
  </defs>
  <g id="Layer_5" data-name="Layer 5">
    <path class="cls-1" d="M11.21,0C5.02,0,0,5.02,0,11.21v44.84c0,6.19,5.02,11.21,11.21,11.21h44.84c6.19,0,11.21-5.02,11.21-11.21V11.21c0-6.19-5.02-11.21-11.21-11.21H11.21ZM14.55,14.41h12.71l9.03,12.83,10.95-12.83h4l-13.15,15.4,16.22,23.04h-12.71l-10.48-14.88-12.71,14.88h-4l14.91-17.45L14.55,14.41ZM20.68,17.62l22.59,32.03h4.91L25.59,17.62h-4.91Z"/>
  </g>
</svg>