<?xml version="1.0" encoding="UTF-8"?>
<svg id="Layer_2" data-name="Layer 2" xmlns="http://www.w3.org/2000/svg" viewBox="0 0 67.26 67.26">
  <defs>
    <style>
      .cls-1 {
        fill: #fff;
      }
    </style>
  </defs>
  <g id="Layer_5" data-name="Layer 5">
    <path class="cls-1" d="M19.78,0C8.92,0,0,8.91,0,19.78v27.71c0,10.86,8.91,19.78,19.78,19.78h27.71c10.86,0,19.78-8.91,19.78-19.78v-27.71c0-10.86-8.91-19.78-19.78-19.78h-27.71ZM19.78,6.11h27.71c7.56,0,13.66,6.1,13.66,13.66v27.71c0,7.56-6.1,13.66-13.66,13.66h-27.71c-7.56,0-13.66-6.1-13.66-13.66v-27.71c0-7.56,6.1-13.66,13.66-13.66ZM51.69,12.8c-1.54,0-2.77,1.23-2.77,2.77s1.23,2.77,2.77,2.77,2.77-1.23,2.77-2.77-1.23-2.77-2.77-2.77ZM33.63,15.29c-10.09,0-18.34,8.25-18.34,18.34s8.25,18.34,18.34,18.34,18.34-8.25,18.34-18.34-8.25-18.34-18.34-18.34ZM33.63,21.4c6.8,0,12.23,5.43,12.23,12.23s-5.43,12.23-12.23,12.23-12.23-5.43-12.23-12.23,5.43-12.23,12.23-12.23Z"/>
  </g>
</svg>