<?xml version="1.0" encoding="UTF-8"?>
<svg id="Layer_2" data-name="Layer 2" xmlns="http://www.w3.org/2000/svg" viewBox="0 0 70.47 54.21">
  <defs>
    <style>
      .cls-1 {
        fill: #fff;
      }
    </style>
  </defs>
  <g id="Layer_5" data-name="Layer 5">
    <path class="cls-1" d="M35.23,0c-10.21,0-19.23,1.06-24.73,1.86C5.95,2.53,2.28,5.96,1.44,10.5c-.71,3.86-1.44,9.52-1.44,16.6s.73,12.74,1.44,16.6c.84,4.54,4.51,7.98,9.06,8.64,5.53.8,14.58,1.86,24.73,1.86s19.2-1.06,24.73-1.86c4.55-.66,8.23-4.1,9.06-8.64.71-3.87,1.44-9.54,1.44-16.6s-.72-12.73-1.44-16.6c-.84-4.54-4.51-7.97-9.06-8.64-5.51-.8-14.53-1.86-24.73-1.86ZM35.23,5.42c9.85,0,18.64,1.01,23.97,1.78,2.29.34,4.08,2.06,4.49,4.32.66,3.58,1.36,8.88,1.36,15.58s-.7,12.01-1.36,15.58c-.41,2.26-2.19,3.99-4.49,4.32-5.35.77-14.19,1.78-23.97,1.78s-18.63-1.01-23.97-1.78c-2.29-.33-4.08-2.06-4.49-4.32-.66-3.58-1.36-8.87-1.36-15.58s.7-12.01,1.36-15.58c.41-2.26,2.19-3.98,4.49-4.32,5.31-.77,14.12-1.78,23.97-1.78ZM27.1,11.6v31l4.07-2.29,18.97-10.84,4.07-2.37-4.07-2.37-18.97-10.84-4.07-2.29ZM32.52,20.92l10.76,6.18-10.76,6.18v-12.37Z"/>
  </g>
</svg>