<?xml version="1.0" encoding="UTF-8"?>
<svg id="Layer_2" data-name="Layer 2" xmlns="http://www.w3.org/2000/svg" viewBox="0 0 67.26 67.26">
  <defs>
    <style>
      .cls-1 {
        fill: #fff;
      }
    </style>
  </defs>
  <g id="Layer_5" data-name="Layer 5">
    <path class="cls-1" d="M8.01,0C3.59,0,0,3.59,0,8.01v51.25c0,4.42,3.59,8.01,8.01,8.01h51.25c4.42,0,8.01-3.59,8.01-8.01V8.01c0-4.42-3.59-8.01-8.01-8.01H8.01ZM12.81,22.42h10.78c1.17,0,7.49-.08,7.49,5.72,0,3.07-2.1,4.11-3.04,4.58,1.41.45,3.99,1.75,3.99,5.72,0,6.13-7.03,6.41-7.98,6.41h-11.24v-22.42ZM40.04,22.42h11.21v3.2h-11.21v-3.2ZM17.62,26.31v5.26h5.16c.7,0,3.04-.39,3.04-2.74s-3.04-2.51-3.51-2.51h-4.69ZM46.01,27.23c6.25,0,7.94,4.87,8.2,6.02.24,1.17.24,2.19.24,3.59h-12.65c0,1.39.74,4.53,4.47,4.53.99,0,1.73-.24,2.48-.7.74-.46,1-.92,1.24-1.38h4.21c-.74,1.84-1.73,3.24-3.22,4.17s-3.22,1.39-5.2,1.39c-1.25,0-2.48-.24-3.73-.7-.99-.46-1.98-1.15-2.72-1.84-.74-.7-1.23-1.63-1.73-2.79-.5-.93-.75-2.32-.75-3.48s.47-8.81,9.18-8.81ZM46.01,30.48c-3.62,0-4.21,3.48-4.21,3.7h7.95c-.26-1.15-1.3-3.7-3.73-3.7ZM17.62,34.77v6.18h5.37c.46,0,3.73-.14,3.73-2.98s-2.57-3.2-3.73-3.2h-5.37Z"/>
  </g>
</svg>