<?xml version="1.0" encoding="UTF-8"?>
<svg id="Layer_1" xmlns="http://www.w3.org/2000/svg" viewBox="0 0 367.64 367">
  <defs>
    <style>
      .cls-1 {
        fill: #e4a7c8;
      }
    </style>
  </defs>
  <path class="cls-1" d="M352.12,265.55l-29.1-7.63-21.81-5.72c-5.36-1.41-9.55-5.59-10.95-10.95l-7.67-29.23-4.05-15.43c-.49-1.88-2.07-2.82-3.66-2.82s-3.16.94-3.66,2.82l-4.05,15.43-7.67,29.23c-1.41,5.36-5.59,9.55-10.95,10.95l-22.05,5.78-22.61,5.93c-3.76.99-3.76,6.33,0,7.31l22.39,5.87.22.06,21.4,5.61c5.53,1.45,9.92,5.66,11.6,11.12h0s6.24,23.78,6.24,23.78l5.48,20.88c.49,1.88,2.07,2.82,3.66,2.82s3.16-.94,3.66-2.82l5.48-20.88,6.24-23.78s0,0,0,0c1.1-4.2,3.91-7.67,7.65-9.65l25.12-7.02,29.1-7.63c2.08-.54,2.08-3.49,0-4.04Z"/>
  <path class="cls-1" d="M293.3,158.4l-53.82-14.11-40.34-10.58c-9.92-2.6-17.66-10.34-20.26-20.26l-14.18-54.06-7.48-28.54c-.91-3.48-3.84-5.22-6.76-5.22s-5.85,1.74-6.76,5.22l-7.48,28.54-14.18,54.06c-2.6,9.92-10.34,17.66-20.26,20.26l-40.77,10.69-41.83,10.97c-6.96,1.82-6.96,11.7,0,13.52l41.41,10.86.41.11,39.58,10.38c10.23,2.68,18.35,10.46,21.46,20.57h0s11.54,43.99,11.54,43.99l10.13,38.61c.91,3.48,3.84,5.22,6.76,5.22s5.85-1.74,6.76-5.22l10.13-38.61,11.54-43.99s0,0,0,0c2.04-7.76,7.23-14.18,14.14-17.85l46.46-12.98,53.82-14.11c3.84-1.01,3.84-6.46,0-7.46Z"/>
</svg>