<?xml version="1.0" encoding="UTF-8"?>
<svg id="Layer_2" xmlns="http://www.w3.org/2000/svg" viewBox="0 0 145 145">
  <defs>
    <style>
      .cls-1 {
        fill: #e4a7c8;
      }
    </style>
  </defs>
  <g id="Layer_2-2" data-name="Layer_2">
    <g>
      <circle class="cls-1" cx="72.5" cy="72.5" r="35.35"/>
      <rect class="cls-1" x="125.52" y="57.35" width="8.66" height="30.3" rx="4.33" ry="4.33" transform="translate(202.35 -57.35) rotate(90)"/>
      <rect class="cls-1" x="10.82" y="57.35" width="8.66" height="30.3" rx="4.33" ry="4.33" transform="translate(87.65 57.35) rotate(90)"/>
      <rect class="cls-1" x="68.17" y="0" width="8.66" height="30.3" rx="4.33" ry="4.33"/>
      <rect class="cls-1" x="68.17" y="114.7" width="8.66" height="30.3" rx="4.33" ry="4.33"/>
      <rect class="cls-1" x="108.72" y="17.52" width="8.66" height="30.3" rx="4.33" ry="4.33" transform="translate(56.21 -70.37) rotate(45)"/>
      <rect class="cls-1" x="27.62" y="98.63" width="8.66" height="30.3" rx="4.33" ry="4.33" transform="translate(89.81 10.73) rotate(45)"/>
      <rect class="cls-1" x="108.72" y="97.74" width="8.66" height="30.3" rx="4.33" ry="4.33" transform="translate(272.82 112.77) rotate(135)"/>
      <rect class="cls-1" x="27.62" y="16.63" width="8.66" height="30.3" rx="4.33" ry="4.33" transform="translate(77.01 31.66) rotate(135)"/>
    </g>
  </g>
</svg>