<?xml version="1.0" encoding="UTF-8"?>
<svg id="Layer_1" data-name="Layer 1" xmlns="http://www.w3.org/2000/svg" viewBox="0 0 959.72 988.54">
  <defs>
    <style>
      .cls-1 {
        fill: #f48e90;
      }

      .cls-1, .cls-2, .cls-3, .cls-4, .cls-5 {
        stroke-width: 0px;
      }

      .cls-2 {
        fill: #9dce7a;
      }

      .cls-3 {
        fill: #7480be;
      }

      .cls-4 {
        fill: #ebec98;
      }

      .cls-5 {
        fill: #4f8d6b;
      }
    </style>
  </defs>
  <path class="cls-5" d="m880.1,194.39c-41.34-68.76-114.39-92.51-184.04-115.16-50.16-16.31-110.74-36.01-191.14-24.6-99.11,14.06-162.49,66.05-194.54,93.06-2.96,2.49-7.43,6.26-12.81,10.98.21-3.21.32-6.45.32-9.72C297.89,66.69,231.21,0,148.95,0S0,66.69,0,148.95s66.69,148.95,148.95,148.95c8.87,0,17.56-.78,26.01-2.27-34.6,46.04-46.32,104.03-57.62,159.89-10.45,51.7-23.07,114.14-2.52,192.7,25.33,96.85,84.24,153.84,114.75,182.59,18.39,17.32,98.06,92.39,132.95,71.03,22.68-13.89,18.88-63.9,12.33-91.08-9.35-38.78-28.62-49-51.96-94.53-19.26-37.57-25.89-69.13-31.63-96.49-18.98-90.38-.85-167.29,8.54-205.35,14.98-60.71,35.73-101.55,50.08-130.31,17.55-8.03,33.62-19.29,63.63-30.54,39.53-14.82,71.64-17.79,99.48-20.36,91.96-8.5,166.28,18.34,203.01,32.03,116.39,43.39,152.32,100.45,179.23,83.24,27.96-17.89,18.43-98.21-15.14-154.04Z"/>
  <g>
    <path class="cls-1" d="m959.71,267.83V76.52c0-27.45-23.1-49.04-50.52-47.62C418.69,54.3,25.47,447.52.07,938.02c-1.42,27.41,20.17,50.52,47.62,50.52h191.31c0-398.04,322.67-720.71,720.71-720.71Z"/>
    <path class="cls-4" d="m239.01,988.36h240.24c0-265.36,215.12-480.48,480.47-480.48v-240.24c-398.04,0-720.71,322.67-720.71,720.71Z"/>
    <path class="cls-2" d="m959.71,508.06c-265.36,0-480.47,215.12-480.47,480.47h271.47c115.43,0,209.01-93.58,209.01-209.01v-271.47Z"/>
    <path class="cls-3" d="m959.71,748.3c-132.68,0-240.24,107.56-240.24,240.24h110.51c71.65,0,129.73-58.08,129.73-129.73v-110.51Z"/>
  </g>
</svg>