<svg id="visual" viewBox="0 0 900 100" width="900" height="100" xmlns="http://www.w3.org/2000/svg" xmlns:xlink="http://www.w3.org/1999/xlink" version="1.1"><rect x="0" y="0" width="900" height="100" fill="#156c4d"></rect><path d="M0 41L10 40.5C20 40 40 39 60 35C80 31 100 24 120 20C140 16 160 15 180 15.3C200 15.7 220 17.3 240 22.5C260 27.7 280 36.3 300 35.5C320 34.7 340 24.3 360 21.3C380 18.3 400 22.7 420 25.5C440 28.3 460 29.7 480 32.7C500 35.7 520 40.3 540 38C560 35.7 580 26.3 600 26.5C620 26.7 640 36.3 660 38.2C680 40 700 34 720 29C740 24 760 20 780 19.7C800 19.3 820 22.7 840 25.5C860 28.3 880 30.7 890 31.8L900 33L900 101L890 101C880 101 860 101 840 101C820 101 800 101 780 101C760 101 740 101 720 101C700 101 680 101 660 101C640 101 620 101 600 101C580 101 560 101 540 101C520 101 500 101 480 101C460 101 440 101 420 101C400 101 380 101 360 101C340 101 320 101 300 101C280 101 260 101 240 101C220 101 200 101 180 101C160 101 140 101 120 101C100 101 80 101 60 101C40 101 20 101 10 101L0 101Z" fill="#82ff7a"></path><path d="M0 31L10 32.2C20 33.3 40 35.7 60 34.7C80 33.7 100 29.3 120 28.2C140 27 160 29 180 32.2C200 35.3 220 39.7 240 42.7C260 45.7 280 47.3 300 47.3C320 47.3 340 45.7 360 43.3C380 41 400 38 420 36.8C440 35.7 460 36.3 480 35.2C500 34 520 31 540 31C560 31 580 34 600 36.8C620 39.7 640 42.3 660 40.7C680 39 700 33 720 30.8C740 28.7 760 30.3 780 30.5C800 30.7 820 29.3 840 28.8C860 28.3 880 28.7 890 28.8L900 29L900 101L890 101C880 101 860 101 840 101C820 101 800 101 780 101C760 101 740 101 720 101C700 101 680 101 660 101C640 101 620 101 600 101C580 101 560 101 540 101C520 101 500 101 480 101C460 101 440 101 420 101C400 101 380 101 360 101C340 101 320 101 300 101C280 101 260 101 240 101C220 101 200 101 180 101C160 101 140 101 120 101C100 101 80 101 60 101C40 101 20 101 10 101L0 101Z" fill="#79f76f"></path><path d="M0 40L10 43C20 46 40 52 60 51.3C80 50.7 100 43.3 120 39.7C140 36 160 36 180 36.3C200 36.7 220 37.3 240 38.2C260 39 280 40 300 43.2C320 46.3 340 51.7 360 53.2C380 54.7 400 52.3 420 49.8C440 47.3 460 44.7 480 44C500 43.3 520 44.7 540 46C560 47.3 580 48.7 600 49.5C620 50.3 640 50.7 660 48C680 45.3 700 39.7 720 40.5C740 41.3 760 48.7 780 50.5C800 52.3 820 48.7 840 49C860 49.3 880 53.7 890 55.8L900 58L900 101L890 101C880 101 860 101 840 101C820 101 800 101 780 101C760 101 740 101 720 101C700 101 680 101 660 101C640 101 620 101 600 101C580 101 560 101 540 101C520 101 500 101 480 101C460 101 440 101 420 101C400 101 380 101 360 101C340 101 320 101 300 101C280 101 260 101 240 101C220 101 200 101 180 101C160 101 140 101 120 101C100 101 80 101 60 101C40 101 20 101 10 101L0 101Z" fill="#70ef63"></path><path d="M0 56L10 56.5C20 57 40 58 60 59.5C80 61 100 63 120 61.3C140 59.7 160 54.3 180 53.3C200 52.3 220 55.7 240 56.2C260 56.7 280 54.3 300 54.7C320 55 340 58 360 58.2C380 58.3 400 55.7 420 53.3C440 51 460 49 480 48.3C500 47.7 520 48.3 540 49.8C560 51.3 580 53.7 600 55.8C620 58 640 60 660 60.7C680 61.3 700 60.7 720 58.8C740 57 760 54 780 52.8C800 51.7 820 52.3 840 51.7C860 51 880 49 890 48L900 47L900 101L890 101C880 101 860 101 840 101C820 101 800 101 780 101C760 101 740 101 720 101C700 101 680 101 660 101C640 101 620 101 600 101C580 101 560 101 540 101C520 101 500 101 480 101C460 101 440 101 420 101C400 101 380 101 360 101C340 101 320 101 300 101C280 101 260 101 240 101C220 101 200 101 180 101C160 101 140 101 120 101C100 101 80 101 60 101C40 101 20 101 10 101L0 101Z" fill="#68e758"></path><path d="M0 71L10 68C20 65 40 59 60 58.3C80 57.7 100 62.3 120 65.3C140 68.3 160 69.7 180 70.2C200 70.7 220 70.3 240 70.2C260 70 280 70 300 70.5C320 71 340 72 360 71.2C380 70.3 400 67.7 420 67C440 66.3 460 67.7 480 67.3C500 67 520 65 540 63.5C560 62 580 61 600 61.8C620 62.7 640 65.3 660 66C680 66.7 700 65.3 720 63.8C740 62.3 760 60.7 780 61.2C800 61.7 820 64.3 840 65.7C860 67 880 67 890 67L900 67L900 101L890 101C880 101 860 101 840 101C820 101 800 101 780 101C760 101 740 101 720 101C700 101 680 101 660 101C640 101 620 101 600 101C580 101 560 101 540 101C520 101 500 101 480 101C460 101 440 101 420 101C400 101 380 101 360 101C340 101 320 101 300 101C280 101 260 101 240 101C220 101 200 101 180 101C160 101 140 101 120 101C100 101 80 101 60 101C40 101 20 101 10 101L0 101Z" fill="#5edf4c"></path><path d="M0 78L10 77.8C20 77.7 40 77.3 60 76.8C80 76.3 100 75.7 120 75.5C140 75.3 160 75.7 180 75.5C200 75.3 220 74.7 240 72.8C260 71 280 68 300 67.3C320 66.7 340 68.3 360 69.3C380 70.3 400 70.7 420 72.7C440 74.7 460 78.3 480 78.3C500 78.3 520 74.7 540 73.3C560 72 580 73 600 73.2C620 73.3 640 72.7 660 71.7C680 70.7 700 69.3 720 69.3C740 69.3 760 70.7 780 72.7C800 74.7 820 77.3 840 77.5C860 77.7 880 75.3 890 74.2L900 73L900 101L890 101C880 101 860 101 840 101C820 101 800 101 780 101C760 101 740 101 720 101C700 101 680 101 660 101C640 101 620 101 600 101C580 101 560 101 540 101C520 101 500 101 480 101C460 101 440 101 420 101C400 101 380 101 360 101C340 101 320 101 300 101C280 101 260 101 240 101C220 101 200 101 180 101C160 101 140 101 120 101C100 101 80 101 60 101C40 101 20 101 10 101L0 101Z" fill="#55d740"></path><path d="M0 86L10 85C20 84 40 82 60 81.8C80 81.7 100 83.3 120 84.2C140 85 160 85 180 85.3C200 85.7 220 86.3 240 87.2C260 88 280 89 300 88C320 87 340 84 360 82.7C380 81.3 400 81.7 420 80.8C440 80 460 78 480 77C500 76 520 76 540 75.7C560 75.3 580 74.7 600 75.7C620 76.7 640 79.3 660 81.7C680 84 700 86 720 86C740 86 760 84 780 82.2C800 80.3 820 78.7 840 78.2C860 77.7 880 78.3 890 78.7L900 79L900 101L890 101C880 101 860 101 840 101C820 101 800 101 780 101C760 101 740 101 720 101C700 101 680 101 660 101C640 101 620 101 600 101C580 101 560 101 540 101C520 101 500 101 480 101C460 101 440 101 420 101C400 101 380 101 360 101C340 101 320 101 300 101C280 101 260 101 240 101C220 101 200 101 180 101C160 101 140 101 120 101C100 101 80 101 60 101C40 101 20 101 10 101L0 101Z" fill="#4bcf33"></path><path d="M0 84L10 84.7C20 85.3 40 86.7 60 87.8C80 89 100 90 120 90.5C140 91 160 91 180 90C200 89 220 87 240 87C260 87 280 89 300 88.7C320 88.3 340 85.7 360 86.3C380 87 400 91 420 92.2C440 93.3 460 91.7 480 91C500 90.3 520 90.7 540 89.8C560 89 580 87 600 86.8C620 86.7 640 88.3 660 88.3C680 88.3 700 86.7 720 87.2C740 87.7 760 90.3 780 89.8C800 89.3 820 85.7 840 85.5C860 85.3 880 88.7 890 90.3L900 92L900 101L890 101C880 101 860 101 840 101C820 101 800 101 780 101C760 101 740 101 720 101C700 101 680 101 660 101C640 101 620 101 600 101C580 101 560 101 540 101C520 101 500 101 480 101C460 101 440 101 420 101C400 101 380 101 360 101C340 101 320 101 300 101C280 101 260 101 240 101C220 101 200 101 180 101C160 101 140 101 120 101C100 101 80 101 60 101C40 101 20 101 10 101L0 101Z" fill="#41c724"></path></svg>