<svg id="visual" viewBox="0 0 900 300" width="900" height="300" xmlns="http://www.w3.org/2000/svg" xmlns:xlink="http://www.w3.org/1999/xlink" version="1.1"><rect x="0" y="0" width="900" height="300" fill="#92ff6f"></rect><path d="M0 171L82 171L82 176L164 176L164 208L245 208L245 163L327 163L327 197L409 197L409 169L491 169L491 184L573 184L573 204L655 204L655 176L736 176L736 181L818 181L818 187L900 187L900 186L900 0L900 0L818 0L818 0L736 0L736 0L655 0L655 0L573 0L573 0L491 0L491 0L409 0L409 0L327 0L327 0L245 0L245 0L164 0L164 0L82 0L82 0L0 0Z" fill="#92ff6f"></path><path d="M0 144L82 144L82 145L164 145L164 155L245 155L245 169L327 169L327 169L409 169L409 164L491 164L491 178L573 178L573 137L655 137L655 174L736 174L736 138L818 138L818 158L900 158L900 175L900 0L900 0L818 0L818 0L736 0L736 0L655 0L655 0L573 0L573 0L491 0L491 0L409 0L409 0L327 0L327 0L245 0L245 0L164 0L164 0L82 0L82 0L0 0Z" fill="#86f663"></path><path d="M0 125L82 125L82 125L164 125L164 133L245 133L245 144L327 144L327 111L409 111L409 118L491 118L491 121L573 121L573 112L655 112L655 128L736 128L736 142L818 142L818 154L900 154L900 122L900 0L900 0L818 0L818 0L736 0L736 0L655 0L655 0L573 0L573 0L491 0L491 0L409 0L409 0L327 0L327 0L245 0L245 0L164 0L164 0L82 0L82 0L0 0Z" fill="#79ec58"></path><path d="M0 126L82 126L82 126L164 126L164 120L245 120L245 107L327 107L327 126L409 126L409 126L491 126L491 93L573 93L573 119L655 119L655 85L736 85L736 103L818 103L818 93L900 93L900 104L900 0L900 0L818 0L818 0L736 0L736 0L655 0L655 0L573 0L573 0L491 0L491 0L409 0L409 0L327 0L327 0L245 0L245 0L164 0L164 0L82 0L82 0L0 0Z" fill="#6ce34c"></path><path d="M0 86L82 86L82 79L164 79L164 72L245 72L245 78L327 78L327 90L409 90L409 89L491 89L491 80L573 80L573 93L655 93L655 68L736 68L736 95L818 95L818 65L900 65L900 86L900 0L900 0L818 0L818 0L736 0L736 0L655 0L655 0L573 0L573 0L491 0L491 0L409 0L409 0L327 0L327 0L245 0L245 0L164 0L164 0L82 0L82 0L0 0Z" fill="#5fda40"></path><path d="M0 39L82 39L82 56L164 56L164 56L245 56L245 44L327 44L327 48L409 48L409 69L491 69L491 59L573 59L573 39L655 39L655 63L736 63L736 43L818 43L818 69L900 69L900 52L900 0L900 0L818 0L818 0L736 0L736 0L655 0L655 0L573 0L573 0L491 0L491 0L409 0L409 0L327 0L327 0L245 0L245 0L164 0L164 0L82 0L82 0L0 0Z" fill="#50d033"></path><path d="M0 30L82 30L82 25L164 25L164 21L245 21L245 37L327 37L327 30L409 30L409 16L491 16L491 21L573 21L573 27L655 27L655 30L736 30L736 37L818 37L818 33L900 33L900 23L900 0L900 0L818 0L818 0L736 0L736 0L655 0L655 0L573 0L573 0L491 0L491 0L409 0L409 0L327 0L327 0L245 0L245 0L164 0L164 0L82 0L82 0L0 0Z" fill="#41c724"></path></svg>