<svg id="visual" viewBox="0 0 900 100" width="900" height="100" xmlns="http://www.w3.org/2000/svg" xmlns:xlink="http://www.w3.org/1999/xlink" version="1.1"><path d="M0 6L82 6L82 18L164 18L164 15L245 15L245 21L327 21L327 15L409 15L409 18L491 18L491 23L573 23L573 19L655 19L655 13L736 13L736 21L818 21L818 18L900 18L900 7L900 0L900 0L818 0L818 0L736 0L736 0L655 0L655 0L573 0L573 0L491 0L491 0L409 0L409 0L327 0L327 0L245 0L245 0L164 0L164 0L82 0L82 0L0 0Z" fill="#0b2f9f"></path><path d="M0 28L82 28L82 33L164 33L164 52L245 52L245 41L327 41L327 33L409 33L409 38L491 38L491 52L573 52L573 23L655 23L655 38L736 38L736 27L818 27L818 39L900 39L900 52L900 5L900 16L818 16L818 19L736 19L736 11L655 11L655 17L573 17L573 21L491 21L491 16L409 16L409 13L327 13L327 19L245 19L245 13L164 13L164 16L82 16L82 4L0 4Z" fill="#005cbc"></path><path d="M0 35L82 35L82 42L164 42L164 54L245 54L245 45L327 45L327 43L409 43L409 45L491 45L491 64L573 64L573 34L655 34L655 53L736 53L736 39L818 39L818 46L900 46L900 58L900 50L900 37L818 37L818 25L736 25L736 36L655 36L655 21L573 21L573 50L491 50L491 36L409 36L409 31L327 31L327 39L245 39L245 50L164 50L164 31L82 31L82 26L0 26Z" fill="#0082ca"></path><path d="M0 45L82 45L82 56L164 56L164 68L245 68L245 55L327 55L327 50L409 50L409 54L491 54L491 66L573 66L573 42L655 42L655 60L736 60L736 47L818 47L818 48L900 48L900 63L900 56L900 44L818 44L818 37L736 37L736 51L655 51L655 32L573 32L573 62L491 62L491 43L409 43L409 41L327 41L327 43L245 43L245 52L164 52L164 40L82 40L82 33L0 33Z" fill="#00a5d0"></path><path d="M0 56L82 56L82 59L164 59L164 76L245 76L245 62L327 62L327 59L409 59L409 65L491 65L491 69L573 69L573 55L655 55L655 64L736 64L736 52L818 52L818 56L900 56L900 73L900 61L900 46L818 46L818 45L736 45L736 58L655 58L655 40L573 40L573 64L491 64L491 52L409 52L409 48L327 48L327 53L245 53L245 66L164 66L164 54L82 54L82 43L0 43Z" fill="#47c6d3"></path><path d="M0 70L82 70L82 80L164 80L164 88L245 88L245 72L327 72L327 73L409 73L409 86L491 86L491 78L573 78L573 72L655 72L655 89L736 89L736 61L818 61L818 83L900 83L900 86L900 71L900 54L818 54L818 50L736 50L736 62L655 62L655 53L573 53L573 67L491 67L491 63L409 63L409 57L327 57L327 60L245 60L245 74L164 74L164 57L82 57L82 54L0 54Z" fill="#87e4d3"></path><path d="M0 101L82 101L82 101L164 101L164 101L245 101L245 101L327 101L327 101L409 101L409 101L491 101L491 101L573 101L573 101L655 101L655 101L736 101L736 101L818 101L818 101L900 101L900 101L900 84L900 81L818 81L818 59L736 59L736 87L655 87L655 70L573 70L573 76L491 76L491 84L409 84L409 71L327 71L327 70L245 70L245 86L164 86L164 78L82 78L82 68L0 68Z" fill="#c7ffd8"></path></svg>