<svg id="visual" viewBox="0 0 900 600" width="900" height="600" xmlns="http://www.w3.org/2000/svg" xmlns:xlink="http://www.w3.org/1999/xlink" version="1.1"><path d="M0 157L82 157L82 175L164 175L164 91L245 91L245 103L327 103L327 181L409 181L409 163L491 163L491 163L573 163L573 217L655 217L655 163L736 163L736 85L818 85L818 103L900 103L900 139L900 0L900 0L818 0L818 0L736 0L736 0L655 0L655 0L573 0L573 0L491 0L491 0L409 0L409 0L327 0L327 0L245 0L245 0L164 0L164 0L82 0L82 0L0 0Z" fill="#98ded9"></path><path d="M0 217L82 217L82 211L164 211L164 187L245 187L245 205L327 205L327 223L409 223L409 253L491 253L491 211L573 211L573 295L655 295L655 211L736 211L736 151L818 151L818 139L900 139L900 229L900 137L900 101L818 101L818 83L736 83L736 161L655 161L655 215L573 215L573 161L491 161L491 161L409 161L409 179L327 179L327 101L245 101L245 89L164 89L164 173L82 173L82 155L0 155Z" fill="#a1e7da"></path><path d="M0 313L82 313L82 307L164 307L164 247L245 247L245 349L327 349L327 373L409 373L409 373L491 373L491 277L573 277L573 409L655 409L655 349L736 349L736 301L818 301L818 223L900 223L900 361L900 227L900 137L818 137L818 149L736 149L736 209L655 209L655 293L573 293L573 209L491 209L491 251L409 251L409 221L327 221L327 203L245 203L245 185L164 185L164 209L82 209L82 215L0 215Z" fill="#acefda"></path><path d="M0 547L82 547L82 547L164 547L164 499L245 499L245 505L327 505L327 529L409 529L409 535L491 535L491 469L573 469L573 529L655 529L655 517L736 517L736 535L818 535L818 547L900 547L900 529L900 359L900 221L818 221L818 299L736 299L736 347L655 347L655 407L573 407L573 275L491 275L491 371L409 371L409 371L327 371L327 347L245 347L245 245L164 245L164 305L82 305L82 311L0 311Z" fill="#b9f7d9"></path><path d="M0 601L82 601L82 601L164 601L164 601L245 601L245 601L327 601L327 601L409 601L409 601L491 601L491 601L573 601L573 601L655 601L655 601L736 601L736 601L818 601L818 601L900 601L900 601L900 527L900 545L818 545L818 533L736 533L736 515L655 515L655 527L573 527L573 467L491 467L491 533L409 533L409 527L327 527L327 503L245 503L245 497L164 497L164 545L82 545L82 545L0 545Z" fill="#c7ffd8"></path></svg>