<svg id="visual" viewBox="0 0 900 600" width="900" height="600" xmlns="http://www.w3.org/2000/svg" xmlns:xlink="http://www.w3.org/1999/xlink" version="1.1"><path d="M0 103L100 103L100 169L200 169L200 85L300 85L300 79L400 79L400 253L500 253L500 217L600 217L600 145L700 145L700 181L800 181L800 181L900 181L900 175L900 0L900 0L800 0L800 0L700 0L700 0L600 0L600 0L500 0L500 0L400 0L400 0L300 0L300 0L200 0L200 0L100 0L100 0L0 0Z" fill="#0b2f9f"></path><path d="M0 193L100 193L100 259L200 259L200 133L300 133L300 157L400 157L400 307L500 307L500 247L600 247L600 169L700 169L700 241L800 241L800 217L900 217L900 253L900 173L900 179L800 179L800 179L700 179L700 143L600 143L600 215L500 215L500 251L400 251L400 77L300 77L300 83L200 83L200 167L100 167L100 101L0 101Z" fill="#0056b9"></path><path d="M0 283L100 283L100 319L200 319L200 235L300 235L300 217L400 217L400 379L500 379L500 349L600 349L600 289L700 289L700 343L800 343L800 319L900 319L900 343L900 251L900 215L800 215L800 239L700 239L700 167L600 167L600 245L500 245L500 305L400 305L400 155L300 155L300 131L200 131L200 257L100 257L100 191L0 191Z" fill="#0077c7"></path><path d="M0 361L100 361L100 337L200 337L200 295L300 295L300 241L400 241L400 397L500 397L500 397L600 397L600 337L700 337L700 379L800 379L800 373L900 373L900 391L900 341L900 317L800 317L800 341L700 341L700 287L600 287L600 347L500 347L500 377L400 377L400 215L300 215L300 233L200 233L200 317L100 317L100 281L0 281Z" fill="#0096ce"></path><path d="M0 457L100 457L100 403L200 403L200 451L300 451L300 445L400 445L400 475L500 475L500 451L600 451L600 487L700 487L700 475L800 475L800 535L900 535L900 457L900 389L900 371L800 371L800 377L700 377L700 335L600 335L600 395L500 395L500 395L400 395L400 239L300 239L300 293L200 293L200 335L100 335L100 359L0 359Z" fill="#20b3d2"></path><path d="M0 487L100 487L100 469L200 469L200 493L300 493L300 505L400 505L400 535L500 535L500 475L600 475L600 529L700 529L700 529L800 529L800 559L900 559L900 511L900 455L900 533L800 533L800 473L700 473L700 485L600 485L600 449L500 449L500 473L400 473L400 443L300 443L300 449L200 449L200 401L100 401L100 455L0 455Z" fill="#59cfd3"></path><path d="M0 529L100 529L100 523L200 523L200 541L300 541L300 565L400 565L400 571L500 571L500 517L600 517L600 577L700 577L700 565L800 565L800 577L900 577L900 553L900 509L900 557L800 557L800 527L700 527L700 527L600 527L600 473L500 473L500 533L400 533L400 503L300 503L300 491L200 491L200 467L100 467L100 485L0 485Z" fill="#90e8d3"></path><path d="M0 601L100 601L100 601L200 601L200 601L300 601L300 601L400 601L400 601L500 601L500 601L600 601L600 601L700 601L700 601L800 601L800 601L900 601L900 601L900 551L900 575L800 575L800 563L700 563L700 575L600 575L600 515L500 515L500 569L400 569L400 563L300 563L300 539L200 539L200 521L100 521L100 527L0 527Z" fill="#c7ffd8"></path></svg>