<svg id="visual" viewBox="0 0 900 100" width="900" height="100" xmlns="http://www.w3.org/2000/svg" xmlns:xlink="http://www.w3.org/1999/xlink" version="1.1"><path d="M0 23L75 44L150 31L225 11L300 31L375 24L450 25L525 32L600 9L675 34L750 25L825 15L900 6L900 0L825 0L750 0L675 0L600 0L525 0L450 0L375 0L300 0L225 0L150 0L75 0L0 0Z" fill="#c7ffd8"></path><path d="M0 29L75 77L150 39L225 46L300 64L375 59L450 47L525 59L600 59L675 43L750 60L825 51L900 54L900 4L825 13L750 23L675 32L600 7L525 30L450 23L375 22L300 29L225 9L150 29L75 42L0 21Z" fill="#a5dfbe"></path><path d="M0 38L75 79L150 53L225 60L300 80L375 70L450 51L525 64L600 74L675 57L750 69L825 54L900 68L900 52L825 49L750 58L675 41L600 57L525 57L450 45L375 57L300 62L225 44L150 37L75 75L0 27Z" fill="#84c0a4"></path><path d="M0 51L75 80L150 65L225 68L300 87L375 81L450 63L525 68L600 79L675 71L750 78L825 57L900 75L900 66L825 52L750 67L675 55L600 72L525 62L450 49L375 68L300 78L225 58L150 51L75 77L0 36Z" fill="#65a28b"></path><path d="M0 71L75 83L150 78L225 76L300 94L375 87L450 82L525 71L600 84L675 80L750 90L825 78L900 80L900 73L825 55L750 76L675 69L600 77L525 66L450 61L375 79L300 85L225 66L150 63L75 78L0 49Z" fill="#468573"></path><path d="M0 82L75 91L150 85L225 83L300 96L375 97L450 87L525 77L600 94L675 81L750 91L825 91L900 81L900 78L825 76L750 88L675 78L600 82L525 69L450 80L375 85L300 92L225 74L150 76L75 81L0 69Z" fill="#28685b"></path><path d="M0 101L75 101L150 101L225 101L300 101L375 101L450 101L525 101L600 101L675 101L750 101L825 101L900 101L900 79L825 89L750 89L675 79L600 92L525 75L450 85L375 95L300 94L225 81L150 83L75 89L0 80Z" fill="#004d44"></path></svg>