<svg id="visual" viewBox="0 0 900 200" width="900" height="200" xmlns="http://www.w3.org/2000/svg" xmlns:xlink="http://www.w3.org/1999/xlink" version="1.1"><path d="M0 35L13.7 34.3C27.3 33.7 54.7 32.3 82 35.3C109.3 38.3 136.7 45.7 163.8 48C191 50.3 218 47.7 245.2 45.7C272.3 43.7 299.7 42.3 327 40.7C354.3 39 381.7 37 409 34.3C436.3 31.7 463.7 28.3 491 28.7C518.3 29 545.7 33 573 31C600.3 29 627.7 21 654.8 23.3C682 25.7 709 38.3 736.2 44C763.3 49.7 790.7 48.3 818 42.3C845.3 36.3 872.7 25.7 886.3 20.3L900 15L900 0L886.3 0C872.7 0 845.3 0 818 0C790.7 0 763.3 0 736.2 0C709 0 682 0 654.8 0C627.7 0 600.3 0 573 0C545.7 0 518.3 0 491 0C463.7 0 436.3 0 409 0C381.7 0 354.3 0 327 0C299.7 0 272.3 0 245.2 0C218 0 191 0 163.8 0C136.7 0 109.3 0 82 0C54.7 0 27.3 0 13.7 0L0 0Z" fill="#301b3e"></path><path d="M0 67L13.7 69.7C27.3 72.3 54.7 77.7 82 85.7C109.3 93.7 136.7 104.3 163.8 102.3C191 100.3 218 85.7 245.2 78C272.3 70.3 299.7 69.7 327 74.3C354.3 79 381.7 89 409 84.7C436.3 80.3 463.7 61.7 491 65.7C518.3 69.7 545.7 96.3 573 97.3C600.3 98.3 627.7 73.7 654.8 66.7C682 59.7 709 70.3 736.2 82.7C763.3 95 790.7 109 818 103C845.3 97 872.7 71 886.3 58L900 45L900 13L886.3 18.3C872.7 23.7 845.3 34.3 818 40.3C790.7 46.3 763.3 47.7 736.2 42C709 36.3 682 23.7 654.8 21.3C627.7 19 600.3 27 573 29C545.7 31 518.3 27 491 26.7C463.7 26.3 436.3 29.7 409 32.3C381.7 35 354.3 37 327 38.7C299.7 40.3 272.3 41.7 245.2 43.7C218 45.7 191 48.3 163.8 46C136.7 43.7 109.3 36.3 82 33.3C54.7 30.3 27.3 31.7 13.7 32.3L0 33Z" fill="#2b1837"></path><path d="M0 105L13.7 105.3C27.3 105.7 54.7 106.3 82 110.3C109.3 114.3 136.7 121.7 163.8 119.3C191 117 218 105 245.2 100.7C272.3 96.3 299.7 99.7 327 104.7C354.3 109.7 381.7 116.3 409 112.7C436.3 109 463.7 95 491 101.3C518.3 107.7 545.7 134.3 573 131C600.3 127.7 627.7 94.3 654.8 83C682 71.7 709 82.3 736.2 96.3C763.3 110.3 790.7 127.7 818 126C845.3 124.3 872.7 103.7 886.3 93.3L900 83L900 43L886.3 56C872.7 69 845.3 95 818 101C790.7 107 763.3 93 736.2 80.7C709 68.3 682 57.7 654.8 64.7C627.7 71.7 600.3 96.3 573 95.3C545.7 94.3 518.3 67.7 491 63.7C463.7 59.7 436.3 78.3 409 82.7C381.7 87 354.3 77 327 72.3C299.7 67.7 272.3 68.3 245.2 76C218 83.7 191 98.3 163.8 100.3C136.7 102.3 109.3 91.7 82 83.7C54.7 75.7 27.3 70.3 13.7 67.7L0 65Z" fill="#261631"></path><path d="M0 125L13.7 126C27.3 127 54.7 129 82 133.7C109.3 138.3 136.7 145.7 163.8 145.7C191 145.7 218 138.3 245.2 132.3C272.3 126.3 299.7 121.7 327 127.7C354.3 133.7 381.7 150.3 409 154.3C436.3 158.3 463.7 149.7 491 151C518.3 152.3 545.7 163.7 573 159.3C600.3 155 627.7 135 654.8 127C682 119 709 123 736.2 134.3C763.3 145.7 790.7 164.3 818 167.3C845.3 170.3 872.7 157.7 886.3 151.3L900 145L900 81L886.3 91.3C872.7 101.7 845.3 122.3 818 124C790.7 125.7 763.3 108.3 736.2 94.3C709 80.3 682 69.7 654.8 81C627.7 92.3 600.3 125.7 573 129C545.7 132.3 518.3 105.7 491 99.3C463.7 93 436.3 107 409 110.7C381.7 114.3 354.3 107.7 327 102.7C299.7 97.7 272.3 94.3 245.2 98.7C218 103 191 115 163.8 117.3C136.7 119.7 109.3 112.3 82 108.3C54.7 104.3 27.3 103.7 13.7 103.3L0 103Z" fill="#21142a"></path><path d="M0 201L13.7 201C27.3 201 54.7 201 82 201C109.3 201 136.7 201 163.8 201C191 201 218 201 245.2 201C272.3 201 299.7 201 327 201C354.3 201 381.7 201 409 201C436.3 201 463.7 201 491 201C518.3 201 545.7 201 573 201C600.3 201 627.7 201 654.8 201C682 201 709 201 736.2 201C763.3 201 790.7 201 818 201C845.3 201 872.7 201 886.3 201L900 201L900 143L886.3 149.3C872.7 155.7 845.3 168.3 818 165.3C790.7 162.3 763.3 143.7 736.2 132.3C709 121 682 117 654.8 125C627.7 133 600.3 153 573 157.3C545.7 161.7 518.3 150.3 491 149C463.7 147.7 436.3 156.3 409 152.3C381.7 148.3 354.3 131.7 327 125.7C299.7 119.7 272.3 124.3 245.2 130.3C218 136.3 191 143.7 163.8 143.7C136.7 143.7 109.3 136.3 82 131.7C54.7 127 27.3 125 13.7 124L0 123Z" fill="#1c1124"></path></svg>