<svg id="visual" viewBox="0 0 900 200" width="900" height="200" xmlns="http://www.w3.org/2000/svg" xmlns:xlink="http://www.w3.org/1999/xlink" version="1.1"><path d="M0 87L15 78.3C30 69.7 60 52.3 90 49.2C120 46 150 57 180 65.2C210 73.3 240 78.7 270 78.5C300 78.3 330 72.7 360 70.2C390 67.7 420 68.3 450 74C480 79.7 510 90.3 540 95.8C570 101.3 600 101.7 630 94.7C660 87.7 690 73.3 720 70.2C750 67 780 75 810 81.7C840 88.3 870 93.7 885 96.3L900 99L900 201L885 201C870 201 840 201 810 201C780 201 750 201 720 201C690 201 660 201 630 201C600 201 570 201 540 201C510 201 480 201 450 201C420 201 390 201 360 201C330 201 300 201 270 201C240 201 210 201 180 201C150 201 120 201 90 201C60 201 30 201 15 201L0 201Z" fill="#e16277"></path><path d="M0 94L15 94.8C30 95.7 60 97.3 90 100C120 102.7 150 106.3 180 100.2C210 94 240 78 270 78.3C300 78.7 330 95.3 360 105.5C390 115.7 420 119.3 450 111.8C480 104.3 510 85.7 540 81.3C570 77 600 87 630 91.8C660 96.7 690 96.3 720 100.2C750 104 780 112 810 106.5C840 101 870 82 885 72.5L900 63L900 201L885 201C870 201 840 201 810 201C780 201 750 201 720 201C690 201 660 201 630 201C600 201 570 201 540 201C510 201 480 201 450 201C420 201 390 201 360 201C330 201 300 201 270 201C240 201 210 201 180 201C150 201 120 201 90 201C60 201 30 201 15 201L0 201Z" fill="#e2596f"></path><path d="M0 87L15 91.8C30 96.7 60 106.3 90 112.5C120 118.7 150 121.3 180 120.7C210 120 240 116 270 113.8C300 111.7 330 111.3 360 115.2C390 119 420 127 450 130.8C480 134.7 510 134.3 540 133.8C570 133.3 600 132.7 630 130.8C660 129 690 126 720 119.7C750 113.3 780 103.7 810 99.8C840 96 870 98 885 99L900 100L900 201L885 201C870 201 840 201 810 201C780 201 750 201 720 201C690 201 660 201 630 201C600 201 570 201 540 201C510 201 480 201 450 201C420 201 390 201 360 201C330 201 300 201 270 201C240 201 210 201 180 201C150 201 120 201 90 201C60 201 30 201 15 201L0 201Z" fill="#e35067"></path><path d="M0 162L15 154.3C30 146.7 60 131.3 90 124.7C120 118 150 120 180 127.3C210 134.7 240 147.3 270 152.7C300 158 330 156 360 152.5C390 149 420 144 450 141.7C480 139.3 510 139.7 540 143.5C570 147.3 600 154.7 630 156.5C660 158.3 690 154.7 720 154.2C750 153.7 780 156.3 810 154.5C840 152.7 870 146.3 885 143.2L900 140L900 201L885 201C870 201 840 201 810 201C780 201 750 201 720 201C690 201 660 201 630 201C600 201 570 201 540 201C510 201 480 201 450 201C420 201 390 201 360 201C330 201 300 201 270 201C240 201 210 201 180 201C150 201 120 201 90 201C60 201 30 201 15 201L0 201Z" fill="#e4465f"></path><path d="M0 160L15 161.3C30 162.7 60 165.3 90 164.3C120 163.3 150 158.7 180 158.3C210 158 240 162 270 164.2C300 166.3 330 166.7 360 165.8C390 165 420 163 450 164C480 165 510 169 540 170.5C570 172 600 171 630 172.7C660 174.3 690 178.7 720 175.7C750 172.7 780 162.3 810 156.7C840 151 870 150 885 149.5L900 149L900 201L885 201C870 201 840 201 810 201C780 201 750 201 720 201C690 201 660 201 630 201C600 201 570 201 540 201C510 201 480 201 450 201C420 201 390 201 360 201C330 201 300 201 270 201C240 201 210 201 180 201C150 201 120 201 90 201C60 201 30 201 15 201L0 201Z" fill="#e43a57"></path></svg>