<svg id="visual" viewBox="0 0 900 200" width="900" height="200" xmlns="http://www.w3.org/2000/svg" xmlns:xlink="http://www.w3.org/1999/xlink" version="1.1"><path d="M0 35L82 39L164 25L245 29L327 27L409 45L491 29L573 19L655 21L736 17L818 37L900 13L900 0L818 0L736 0L655 0L573 0L491 0L409 0L327 0L245 0L164 0L82 0L0 0Z" fill="#e43a57"></path><path d="M0 77L82 65L164 71L245 99L327 77L409 127L491 59L573 105L655 71L736 95L818 67L900 61L900 11L818 35L736 15L655 19L573 17L491 27L409 43L327 25L245 27L164 23L82 37L0 33Z" fill="#ce3658"></path><path d="M0 89L82 89L164 81L245 109L327 99L409 137L491 77L573 117L655 95L736 131L818 105L900 91L900 59L818 65L736 93L655 69L573 103L491 57L409 125L327 75L245 97L164 69L82 63L0 75Z" fill="#b73357"></path><path d="M0 141L82 137L164 121L245 159L327 125L409 151L491 105L573 149L655 141L736 157L818 145L900 117L900 89L818 103L736 129L655 93L573 115L491 75L409 135L327 97L245 107L164 79L82 87L0 87Z" fill="#a03154"></path><path d="M0 201L82 201L164 201L245 201L327 201L409 201L491 201L573 201L655 201L736 201L818 201L900 201L900 115L818 143L736 155L655 139L573 147L491 103L409 149L327 123L245 157L164 119L82 135L0 139Z" fill="#892f4f"></path></svg>