<svg id="visual" viewBox="0 0 900 200" width="900" height="200" xmlns="http://www.w3.org/2000/svg" xmlns:xlink="http://www.w3.org/1999/xlink" version="1.1"><path d="M0 31L41 31L41 35L82 35L82 21L123 21L123 17L164 17L164 37L205 37L205 33L245 33L245 25L286 25L286 25L327 25L327 17L368 17L368 31L409 31L409 13L450 13L450 39L491 39L491 35L532 35L532 9L573 9L573 19L614 19L614 13L655 13L655 33L695 33L695 13L736 13L736 15L777 15L777 23L818 23L818 29L859 29L859 27L900 27L900 17L900 0L900 0L859 0L859 0L818 0L818 0L777 0L777 0L736 0L736 0L695 0L695 0L655 0L655 0L614 0L614 0L573 0L573 0L532 0L532 0L491 0L491 0L450 0L450 0L409 0L409 0L368 0L368 0L327 0L327 0L286 0L286 0L245 0L245 0L205 0L205 0L164 0L164 0L123 0L123 0L82 0L82 0L41 0L41 0L0 0Z" fill="#892f4f"></path><path d="M0 59L41 59L41 61L82 61L82 41L123 41L123 35L164 35L164 55L205 55L205 53L245 53L245 37L286 37L286 57L327 57L327 39L368 39L368 59L409 59L409 33L450 33L450 59L491 59L491 61L532 61L532 35L573 35L573 37L614 37L614 33L655 33L655 55L695 55L695 25L736 25L736 25L777 25L777 45L818 45L818 49L859 49L859 41L900 41L900 29L900 15L900 25L859 25L859 27L818 27L818 21L777 21L777 13L736 13L736 11L695 11L695 31L655 31L655 11L614 11L614 17L573 17L573 7L532 7L532 33L491 33L491 37L450 37L450 11L409 11L409 29L368 29L368 15L327 15L327 23L286 23L286 23L245 23L245 31L205 31L205 35L164 35L164 15L123 15L123 19L82 19L82 33L41 33L41 29L0 29Z" fill="#782a4f"></path><path d="M0 85L41 85L41 93L82 93L82 85L123 85L123 87L164 87L164 75L205 75L205 83L245 83L245 69L286 69L286 83L327 83L327 91L368 91L368 79L409 79L409 55L450 55L450 79L491 79L491 89L532 89L532 73L573 73L573 77L614 77L614 75L655 75L655 95L695 95L695 53L736 53L736 81L777 81L777 89L818 89L818 79L859 79L859 57L900 57L900 69L900 27L900 39L859 39L859 47L818 47L818 43L777 43L777 23L736 23L736 23L695 23L695 53L655 53L655 31L614 31L614 35L573 35L573 33L532 33L532 59L491 59L491 57L450 57L450 31L409 31L409 57L368 57L368 37L327 37L327 55L286 55L286 35L245 35L245 51L205 51L205 53L164 53L164 33L123 33L123 39L82 39L82 59L41 59L41 57L0 57Z" fill="#66264e"></path><path d="M0 107L41 107L41 113L82 113L82 111L123 111L123 111L164 111L164 93L205 93L205 105L245 105L245 91L286 91L286 103L327 103L327 107L368 107L368 93L409 93L409 73L450 73L450 95L491 95L491 109L532 109L532 101L573 101L573 87L614 87L614 85L655 85L655 123L695 123L695 67L736 67L736 99L777 99L777 99L818 99L818 97L859 97L859 65L900 65L900 85L900 67L900 55L859 55L859 77L818 77L818 87L777 87L777 79L736 79L736 51L695 51L695 93L655 93L655 73L614 73L614 75L573 75L573 71L532 71L532 87L491 87L491 77L450 77L450 53L409 53L409 77L368 77L368 89L327 89L327 81L286 81L286 67L245 67L245 81L205 81L205 73L164 73L164 85L123 85L123 83L82 83L82 91L41 91L41 83L0 83Z" fill="#54224a"></path><path d="M0 135L41 135L41 159L82 159L82 173L123 173L123 177L164 177L164 165L205 165L205 171L245 171L245 143L286 143L286 155L327 155L327 159L368 159L368 123L409 123L409 169L450 169L450 143L491 143L491 155L532 155L532 139L573 139L573 137L614 137L614 147L655 147L655 153L695 153L695 123L736 123L736 169L777 169L777 157L818 157L818 145L859 145L859 173L900 173L900 175L900 83L900 63L859 63L859 95L818 95L818 97L777 97L777 97L736 97L736 65L695 65L695 121L655 121L655 83L614 83L614 85L573 85L573 99L532 99L532 107L491 107L491 93L450 93L450 71L409 71L409 91L368 91L368 105L327 105L327 101L286 101L286 89L245 89L245 103L205 103L205 91L164 91L164 109L123 109L123 109L82 109L82 111L41 111L41 105L0 105Z" fill="#421f45"></path><path d="M0 201L41 201L41 201L82 201L82 201L123 201L123 201L164 201L164 201L205 201L205 201L245 201L245 201L286 201L286 201L327 201L327 201L368 201L368 201L409 201L409 201L450 201L450 201L491 201L491 201L532 201L532 201L573 201L573 201L614 201L614 201L655 201L655 201L695 201L695 201L736 201L736 201L777 201L777 201L818 201L818 201L859 201L859 201L900 201L900 201L900 173L900 171L859 171L859 143L818 143L818 155L777 155L777 167L736 167L736 121L695 121L695 151L655 151L655 145L614 145L614 135L573 135L573 137L532 137L532 153L491 153L491 141L450 141L450 167L409 167L409 121L368 121L368 157L327 157L327 153L286 153L286 141L245 141L245 169L205 169L205 163L164 163L164 175L123 175L123 171L82 171L82 157L41 157L41 133L0 133Z" fill="#301b3e"></path></svg>